<svg width="24" height="23" viewBox="0 0 24 23" fill="none" xmlns="http://www.w3.org/2000/svg">
<path fill-rule="evenodd" clip-rule="evenodd" d="M14.1434 17.2469C13.4433 17.427 12.7094 17.5228 11.953 17.5228C9.53365 17.5228 7.34328 16.5422 5.75775 14.9567L7.30657 13.4079C8.49573 14.597 10.1385 15.3325 11.953 15.3325C12.721 15.3325 13.4583 15.2007 14.1434 14.9586V17.2469ZM3.19159 8.76145C3.19166 8.98551 3.19998 9.20749 3.21654 9.42738L1.54882 7.76018L0 9.309L4.2868 13.5958L8.57356 9.309L7.02473 7.76018L5.41015 9.37425C5.39151 9.1725 5.38197 8.96808 5.38197 8.76145C5.38197 5.13231 8.32396 2.19037 11.953 2.19037C15.5821 2.19037 18.5241 5.13231 18.5241 8.76145C18.5241 10.4444 17.8914 11.9796 16.8509 13.1421H19.5424C20.2878 11.8534 20.7145 10.3573 20.7145 8.76145C20.7145 3.92262 16.7919 0 11.953 0C7.11421 0 3.19159 3.92262 3.19159 8.76145ZM10.8579 9.35284V3.28554H13.0482V8.17005L15.8409 10.0428L14.6362 11.8608L10.8579 9.35284ZM24 14.2373V16.4277H18.5241V14.2373H24ZM17.4289 14.2373V16.4277H15.2386V14.2373H17.4289ZM24 19.7132V17.5228H18.5241V19.7132H24ZM17.4289 17.5228V19.7132H15.2386V17.5228H17.4289ZM24 22.9988V20.8084H18.5241V22.9988H24ZM17.4289 20.8084V22.9988H15.2386V20.8084H17.4289Z" fill="white"/>
</svg>
