<svg xmlns="http://www.w3.org/2000/svg" xmlns:xlink="http://www.w3.org/1999/xlink" width="60" height="60" viewBox="0 0 60 60"><defs><style>.a{fill:none;}.b{clip-path:url(#a);}.c{fill:#30e5e5;}.d{fill:#1584e8;}.e{fill:#c4f3ff;}.f{fill:#fff;}.g{fill:#fbdd4d;}</style><clipPath id="a"><rect class="a" width="45.071" height="45.071"/></clipPath></defs><g transform="translate(-125 -721)"><rect class="a" width="60" height="60" transform="translate(125 721)"/><g transform="translate(132.464 728.464)"><g class="b"><path class="c" d="M22.536,0A22.536,22.536,0,1,0,45.071,22.536,22.536,22.536,0,0,0,22.536,0"/><path class="d" d="M57.8,40.7A17.094,17.094,0,1,1,40.7,57.8,17.094,17.094,0,0,1,57.8,40.7" transform="translate(-35.26 -35.26)"/><path class="e" d="M168.57,61.052V89.8a14.374,14.374,0,0,0,0-28.748" transform="translate(-146.034 -52.89)"/><path class="f" d="M87.079,75.426c0-7.938-5.217-14.374-11.653-14.374a14.374,14.374,0,1,0,0,28.747c6.436,0,11.653-6.435,11.653-14.374" transform="translate(-52.89 -52.89)"/><path class="d" d="M91.9,167.282a1.36,1.36,0,0,0,1.858.5l8.775-5.066-1.36-2.356L92.4,165.423A1.36,1.36,0,0,0,91.9,167.282Z" transform="translate(-79.454 -138.919)"/><path class="c" d="M159.755,81.4a1.36,1.36,0,0,0-1.36,1.36V92.9h2.721V82.762a1.36,1.36,0,0,0-1.36-1.36" transform="translate(-137.22 -70.52)"/><path class="g" d="M181.692,163.482H170.266v1.36h11.426a.68.68,0,1,0,0-1.36" transform="translate(-147.504 -141.627)"/><path class="g" d="M155.347,153.307a2.04,2.04,0,1,1-2.04,2.04,2.04,2.04,0,0,1,2.04-2.04" transform="translate(-132.812 -132.812)"/></g></g></g></svg>