<svg width="25" height="25" viewBox="0 0 25 25" fill="none" xmlns="http://www.w3.org/2000/svg">
<path d="M12.5 25C10.7917 25 9.17708 24.6717 7.65625 24.015C6.13542 23.3583 4.8075 22.4625 3.6725 21.3275C2.5375 20.1925 1.64167 18.8646 0.985 17.3438C0.328333 15.8229 0 14.2083 0 12.5C0 10.7708 0.328333 9.15125 0.985 7.64125C1.64167 6.13125 2.5375 4.80833 3.6725 3.6725C4.8075 2.53667 6.13542 1.64083 7.65625 0.985C9.17708 0.329167 10.7917 0.000833333 12.5 0C14.2292 0 15.8492 0.328333 17.36 0.985C18.8708 1.64167 20.1933 2.5375 21.3275 3.6725C22.4617 4.8075 23.3575 6.13042 24.015 7.64125C24.6725 9.15208 25.0008 10.7717 25 12.5C25 14.2083 24.6717 15.8229 24.015 17.3438C23.3583 18.8646 22.4625 20.1929 21.3275 21.3288C20.1925 22.4646 18.8696 23.3604 17.3587 24.0162C15.8479 24.6721 14.2283 25 12.5 25ZM12.5 22.4375C13.0417 21.6875 13.5104 20.9062 13.9062 20.0938C14.3021 19.2813 14.625 18.4167 14.875 17.5H10.125C10.375 18.4167 10.6979 19.2813 11.0938 20.0938C11.4896 20.9062 11.9583 21.6875 12.5 22.4375ZM9.25 21.9375C8.875 21.25 8.54708 20.5362 8.26625 19.7962C7.98542 19.0562 7.75083 18.2908 7.5625 17.5H3.875C4.47917 18.5417 5.23458 19.4479 6.14125 20.2188C7.04792 20.9896 8.08417 21.5625 9.25 21.9375ZM15.75 21.9375C16.9167 21.5625 17.9533 20.9896 18.86 20.2188C19.7667 19.4479 20.5217 18.5417 21.125 17.5H17.4375C17.25 18.2917 17.0158 19.0575 16.735 19.7975C16.4542 20.5375 16.1258 21.2508 15.75 21.9375ZM2.8125 15H7.0625C7 14.5833 6.95333 14.1721 6.9225 13.7662C6.89167 13.3604 6.87583 12.9383 6.875 12.5C6.87417 12.0617 6.89 11.64 6.9225 11.235C6.955 10.83 7.00167 10.4183 7.0625 10H2.8125C2.70833 10.4167 2.63042 10.8283 2.57875 11.235C2.52708 11.6417 2.50083 12.0633 2.5 12.5C2.49917 12.9367 2.52542 13.3587 2.57875 13.7662C2.63208 14.1737 2.71 14.585 2.8125 15ZM9.5625 15H15.4375C15.5 14.5833 15.5471 14.1721 15.5788 13.7662C15.6104 13.3604 15.6258 12.9383 15.625 12.5C15.6242 12.0617 15.6083 11.64 15.5775 11.235C15.5467 10.83 15.5 10.4183 15.4375 10H9.5625C9.5 10.4167 9.45333 10.8283 9.4225 11.235C9.39167 11.6417 9.37583 12.0633 9.375 12.5C9.37417 12.9367 9.39 13.3587 9.4225 13.7662C9.455 14.1737 9.50167 14.585 9.5625 15ZM17.9375 15H22.1875C22.2917 14.5833 22.37 14.1721 22.4225 13.7662C22.475 13.3604 22.5008 12.9383 22.5 12.5C22.4992 12.0617 22.4733 11.64 22.4225 11.235C22.3717 10.83 22.2933 10.4183 22.1875 10H17.9375C18 10.4167 18.0471 10.8283 18.0787 11.235C18.1104 11.6417 18.1258 12.0633 18.125 12.5C18.1242 12.9367 18.1083 13.3587 18.0775 13.7662C18.0467 14.1737 18 14.585 17.9375 15ZM17.4375 7.5H21.125C20.5208 6.45833 19.7658 5.55208 18.86 4.78125C17.9542 4.01042 16.9175 3.4375 15.75 3.0625C16.125 3.75 16.4533 4.46375 16.735 5.20375C17.0167 5.94375 17.2508 6.70917 17.4375 7.5ZM10.125 7.5H14.875C14.625 6.58333 14.3021 5.71875 13.9062 4.90625C13.5104 4.09375 13.0417 3.3125 12.5 2.5625C11.9583 3.3125 11.4896 4.09375 11.0938 4.90625C10.6979 5.71875 10.375 6.58333 10.125 7.5ZM3.875 7.5H7.5625C7.75 6.70833 7.98458 5.9425 8.26625 5.2025C8.54792 4.4625 8.87583 3.74917 9.25 3.0625C8.08333 3.4375 7.04667 4.01042 6.14 4.78125C5.23333 5.55208 4.47833 6.45833 3.875 7.5Z" fill="#00F6F6"/>
</svg>
