<svg width="19" height="25" viewBox="0 0 19 25" fill="none" xmlns="http://www.w3.org/2000/svg">
<path d="M2.375 24.9375C1.72187 24.9375 1.16296 24.7051 0.698249 24.2404C0.233541 23.7757 0.000791666 23.2164 0 22.5625V10.6875C0 10.0344 0.23275 9.47545 0.698249 9.01074C1.16375 8.54603 1.72266 8.31328 2.375 8.31249H3.5625V5.93749C3.5625 4.29479 4.1416 2.89473 5.29981 1.73731C6.45801 0.579896 7.85807 0.000792476 9.49999 8.10579e-07C11.1419 -0.000790855 12.5424 0.578313 13.7014 1.73731C14.8604 2.89631 15.4391 4.29637 15.4375 5.93749V8.31249H16.625C17.2781 8.31249 17.8374 8.54524 18.3029 9.01074C18.7684 9.47624 19.0008 10.0352 19 10.6875V22.5625C19 23.2156 18.7676 23.7749 18.3029 24.2404C17.8382 24.7059 17.2789 24.9383 16.625 24.9375H2.375ZM2.375 22.5625H16.625V10.6875H2.375V22.5625ZM9.49999 19C10.1531 19 10.7124 18.7676 11.1779 18.3029C11.6434 17.8382 11.8758 17.2789 11.875 16.625C11.8742 15.9711 11.6418 15.4122 11.1779 14.9482C10.714 14.4843 10.1547 14.2516 9.49999 14.25C8.84528 14.2484 8.28637 14.4812 7.82324 14.9482C7.36012 15.4153 7.12737 15.9742 7.12499 16.625C7.12262 17.2757 7.35537 17.835 7.82324 18.3029C8.29112 18.7708 8.85003 19.0031 9.49999 19ZM5.93749 8.31249H13.0625V5.93749C13.0625 4.94791 12.7161 4.10677 12.0234 3.41406C11.3307 2.72135 10.4896 2.375 9.49999 2.375C8.51041 2.375 7.66926 2.72135 6.97655 3.41406C6.28385 4.10677 5.93749 4.94791 5.93749 5.93749V8.31249Z" fill="#00F6F6"/>
</svg>
