<svg width="21" height="21" viewBox="0 0 21 21" fill="none" xmlns="http://www.w3.org/2000/svg">
<g clip-path="url(#clip0_429_193)">
<path d="M19.2015 15.9653H20.1664V16.9302H19.2015V15.9653Z" fill="#5DF4FF"/>
<path d="M18.2303 14.9941H19.2015V15.9654H18.2303V14.9941ZM18.2303 8.22711H19.2015V10.1569H18.2303V8.22711ZM16.3005 16.9303H19.2015V17.8952H16.3005V16.9303ZM17.2654 14.0292H18.2303V14.9941H17.2654V14.0292ZM17.2654 9.19201H16.3005V8.22711H15.3292V9.19201H14.3643V10.1569H13.3931V11.1282H12.4282V12.0931H11.4633V13.058H10.492V14.0292H11.4633V14.9941H12.4282V15.9654H13.3931V14.9941H14.3643V14.0292H15.3292V13.058H16.3005V12.0931H17.2654V11.1282H18.2303V10.1569H17.2654V9.19201ZM16.3005 7.25586H18.2303V8.22711H16.3005V7.25586ZM14.3643 17.8952H16.3005V18.8664H14.3643V17.8952ZM13.3931 7.25586H14.3643V8.22711H13.3931V7.25586ZM13.3931 3.38989H14.3643V4.3548H13.3931V3.38989ZM3.72498 18.8664H14.3643V19.8314H3.72498V18.8664ZM12.4282 6.29095H13.3931V7.25586H12.4282V6.29095ZM12.4282 4.3548H13.3931V5.3197H12.4282V4.3548Z" fill="#5DF4FF"/>
<path d="M10.492 14.0292H9.5271V16.9303H12.4282V15.9654H10.492V14.0292ZM11.4633 10.1569V9.19201H12.4282V8.22711H9.5271V9.19201H10.492V10.1569H11.4633ZM10.492 3.38989H11.4633V4.3548H10.492V3.38989ZM7.59094 13.058V12.0931H6.62604V14.0292H9.5271V13.058H7.59094ZM8.56219 11.1282H9.5271V12.0931H8.56219V11.1282ZM6.62604 15.9654H8.56219V16.9303H6.62604V15.9654ZM7.59094 10.1569V9.19201H8.56219V8.22711H5.65479V9.19201H6.62604V10.1569H7.59094Z" fill="#5DF4FF"/>
<path d="M12.4282 6.29101V5.31976H10.492V4.35486H9.5271V5.31976H8.56219V2.4187H7.59094V5.31976H6.62604V4.35486H5.65478V6.29101H12.4282ZM4.68988 14.9942H6.62604V15.9654H4.68988V14.9942ZM4.68988 6.29101H5.65478V7.25592H4.68988V6.29101ZM4.68988 3.38995H5.65478V4.35486H4.68988V3.38995ZM3.72498 7.25592H4.68988V14.9942H3.72498V7.25592ZM3.72498 5.31976H4.68988V6.29101H3.72498V5.31976ZM2.75372 15.9654H3.72498V18.8665H2.75372V15.9654ZM2.75372 4.35486H3.72498V5.31976H2.75372V4.35486ZM1.78882 12.0931H2.75372V15.9654H1.78882V12.0931Z" fill="#5DF4FF"/>
<path d="M1.78882 1.45367H15.3292V6.29089H16.3005V0.482422H0.817566V12.093H1.78882V1.45367Z" fill="#5DF4FF"/>
</g>
<defs>
<clipPath id="clip0_429_193">
<rect width="20.3138" height="20.3138" fill="white" transform="translate(0.335114)"/>
</clipPath>
</defs>
</svg>
