<svg width="25" height="25" viewBox="0 0 25 25" fill="none" xmlns="http://www.w3.org/2000/svg">
<path d="M9.31122 9.94898C9.89748 9.94898 10.478 9.83351 11.0196 9.60916C11.5613 9.38481 12.0534 9.05597 12.468 8.64142C12.8825 8.22687 13.2113 7.73473 13.4357 7.1931C13.66 6.65147 13.7755 6.07095 13.7755 5.48469C13.7755 4.89844 13.66 4.31792 13.4357 3.77629C13.2113 3.23465 12.8825 2.74251 12.468 2.32797C12.0534 1.91342 11.5613 1.58458 11.0196 1.36023C10.478 1.13588 9.89748 1.02041 9.31122 1.02041C8.12722 1.02041 6.99171 1.49075 6.1545 2.32797C5.31728 3.16518 4.84694 4.30069 4.84694 5.48469C4.84694 6.6687 5.31728 7.8042 6.1545 8.64142C6.99171 9.47864 8.12722 9.94898 9.31122 9.94898Z" stroke="#00F6F6" stroke-width="2" stroke-linejoin="round"/>
<path d="M16.3265 19.5153H23.9796M14.4133 15.051H9.18367C6.32653 15.051 4.89796 15.051 3.80612 15.6071C2.84615 16.0963 2.06567 16.8768 1.57653 17.8367C1.02041 18.9286 1.02041 20.3571 1.02041 23.2143V23.9796H14.4133" stroke="#00F6F6" stroke-width="2" stroke-linecap="round" stroke-linejoin="round"/>
</svg>
