<svg width="34" height="34" viewBox="0 0 34 34" fill="none" xmlns="http://www.w3.org/2000/svg">
<path d="M26.6953 11.1562C26.5007 13.857 24.4973 15.9375 22.3125 15.9375C20.1277 15.9375 18.1209 13.8577 17.9297 11.1562C17.7305 8.3466 19.6808 6.375 22.3125 6.375C24.9442 6.375 26.8945 8.39773 26.6953 11.1562Z" stroke="#00F6F6" stroke-linecap="round" stroke-linejoin="round"/>
<path d="M22.3125 20.1875C17.9848 20.1875 13.8231 22.3371 12.7805 26.5233C12.6424 27.0771 12.9897 27.625 13.5588 27.625H31.0668C31.6359 27.625 31.9812 27.0771 31.8451 26.5233C30.8025 22.27 26.6409 20.1875 22.3125 20.1875Z" stroke="#00F6F6" stroke-miterlimit="10"/>
<path d="M13.2812 12.3476C13.1259 14.5045 11.5069 16.2031 9.76171 16.2031C8.01656 16.2031 6.39492 14.5051 6.24218 12.3476C6.08347 10.1037 7.65929 8.5 9.76171 8.5C11.8641 8.5 13.44 10.1449 13.2812 12.3476Z" stroke="#00F6F6" stroke-linecap="round" stroke-linejoin="round"/>
<path d="M13.6797 20.3204C12.481 19.7712 11.1609 19.5601 9.76171 19.5601C6.30859 19.5601 2.98163 21.2767 2.14824 24.6202C2.03867 25.0625 2.31624 25.5001 2.77046 25.5001H10.2266" stroke="#00F6F6" stroke-miterlimit="10" stroke-linecap="round"/>
</svg>
