<svg xmlns="http://www.w3.org/2000/svg" width="40" height="40" viewBox="0 0 40 40"><defs><style>.a{fill:none;}.b{fill:#c1c6ff;}</style></defs><g transform="translate(-125 -721)"><rect class="a" width="40" height="40" transform="translate(125 721)"/><path class="b" d="M92.994,39a10.574,10.574,0,0,0-2.967-5.49c.342-3.011-.913-3.545-.913-3.545-.264-9.316-8.27-9.154-8.439-9.15s-8.176-.167-8.439,9.15c0,0-1.255.534-.913,3.545A10.57,10.57,0,0,0,68.357,39s-.3,5.6,2.739.686a15.762,15.762,0,0,0,1.939,3.545s-2.244.763-2.053,2.745c0,0-.078,2.21,4.792,2.059,0,0,3.422-.266,4.45-1.716h.905c1.027,1.449,4.449,1.716,4.449,1.716,4.868.152,4.792-2.059,4.792-2.059.19-1.982-2.053-2.745-2.053-2.745a15.762,15.762,0,0,0,1.939-3.545C93.3,44.6,92.994,39,92.994,39Z" transform="translate(64.325 706.572)"/></g></svg>