<svg width="11" height="11" viewBox="0 0 11 11" fill="none" xmlns="http://www.w3.org/2000/svg">
<path d="M5.5 9.97674C6.08789 9.97674 6.67003 9.86095 7.21318 9.63597C7.75632 9.411 8.24983 9.08124 8.66554 8.66554C9.08124 8.24983 9.411 7.75632 9.63597 7.21318C9.86095 6.67003 9.97674 6.08789 9.97674 5.5C9.97674 4.91211 9.86095 4.32997 9.63597 3.78682C9.411 3.24368 9.08124 2.75017 8.66554 2.33446C8.24983 1.91876 7.75632 1.58901 7.21318 1.36403C6.67003 1.13905 6.08789 1.02326 5.5 1.02326C4.31269 1.02326 3.17402 1.49491 2.33446 2.33446C1.49491 3.17402 1.02326 4.31269 1.02326 5.5C1.02326 6.68731 1.49491 7.82598 2.33446 8.66554C3.17402 9.50509 4.31269 9.97674 5.5 9.97674Z" stroke="#00F6F6" stroke-width="2" stroke-linejoin="round"/>
</svg>
