<svg width="24" height="25" viewBox="0 0 24 25" fill="none" xmlns="http://www.w3.org/2000/svg">
<path d="M22.0391 13.0223C21.8433 12.7994 21.7353 12.5128 21.7353 12.2161C21.7353 11.9194 21.8433 11.6329 22.0391 11.41L23.6025 9.65108C23.7748 9.4589 23.8818 9.2171 23.9081 8.96036C23.9345 8.70362 23.8788 8.44513 23.7491 8.22199L21.3062 3.99579C21.1778 3.7729 20.9824 3.59622 20.7477 3.49095C20.513 3.38567 20.2511 3.35716 19.9993 3.40949L17.703 3.87364C17.4108 3.93402 17.1066 3.88535 16.8478 3.73684C16.589 3.58833 16.3936 3.35023 16.2983 3.06749L15.5532 0.832244C15.4713 0.589639 15.3152 0.378923 15.1069 0.229878C14.8987 0.0808339 14.6489 0.00100011 14.3928 0.00166111H9.50706C9.2407 -0.0122414 8.97711 0.061422 8.75656 0.2114C8.536 0.361379 8.3706 0.579428 8.28561 0.832244L7.6016 3.06749C7.50633 3.35023 7.31086 3.58833 7.05209 3.73684C6.79332 3.88535 6.48913 3.93402 6.19694 3.87364L3.83955 3.40949C3.60082 3.37576 3.35745 3.41343 3.14009 3.51776C2.92273 3.62209 2.74111 3.78842 2.61811 3.99579L0.175217 8.22199C0.0422755 8.44264 -0.0174996 8.69968 0.00443817 8.95635C0.0263759 9.21302 0.128903 9.45618 0.297362 9.65108L1.8486 11.41C2.04442 11.6329 2.15241 11.9194 2.15241 12.2161C2.15241 12.5128 2.04442 12.7994 1.8486 13.0223L0.297362 14.7811C0.128903 14.976 0.0263759 15.2192 0.00443817 15.4759C-0.0174996 15.7325 0.0422755 15.9896 0.175217 16.2102L2.61811 20.4364C2.74648 20.6593 2.94194 20.836 3.17662 20.9413C3.4113 21.0466 3.67322 21.0751 3.92505 21.0227L6.22137 20.5586C6.51356 20.4982 6.81774 20.5469 7.07652 20.6954C7.33529 20.8439 7.53076 21.082 7.62603 21.3647L8.37111 23.6C8.4561 23.8528 8.6215 24.0708 8.84206 24.2208C9.06262 24.3708 9.3262 24.4445 9.59256 24.4306H14.4783C14.7344 24.4312 14.9842 24.3514 15.1924 24.2023C15.4007 24.0533 15.5568 23.8426 15.6387 23.6L16.3838 21.3647C16.4791 21.082 16.6745 20.8439 16.9333 20.6954C17.1921 20.5469 17.4963 20.4982 17.7885 20.5586L20.0848 21.0227C20.3366 21.0751 20.5985 21.0466 20.8332 20.9413C21.0679 20.836 21.2633 20.6593 21.3917 20.4364L23.8346 16.2102C23.9643 15.9871 24.02 15.7286 23.9936 15.4719C23.9673 15.2151 23.8603 14.9733 23.688 14.7811L22.0391 13.0223ZM20.2191 14.659L21.1963 15.7583L19.6328 18.4699L18.1915 18.1768C17.3118 17.9969 16.3967 18.1464 15.6199 18.5967C14.8431 19.047 14.2587 19.7669 13.9775 20.6197L13.5134 21.9877H10.3865L9.94678 20.5952C9.66567 19.7425 9.08124 19.0226 8.30443 18.5723C7.52762 18.1219 6.6125 17.9725 5.73279 18.1523L4.29149 18.4455L2.70361 15.7461L3.68076 14.6468C4.28166 13.975 4.61387 13.1052 4.61387 12.2039C4.61387 11.3026 4.28166 10.4328 3.68076 9.76101L2.70361 8.66171L4.26706 5.97453L5.70836 6.26767C6.58807 6.4475 7.50319 6.29806 8.28 5.84774C9.05681 5.39741 9.64124 4.67755 9.92235 3.82478L10.3865 2.44455H13.5134L13.9775 3.837C14.2587 4.68976 14.8431 5.40963 15.6199 5.85995C16.3967 6.31028 17.3118 6.45971 18.1915 6.27989L19.6328 5.98674L21.1963 8.69835L20.2191 9.79765C19.625 10.4679 19.2969 11.3326 19.2969 12.2283C19.2969 13.124 19.625 13.9887 20.2191 14.659ZM11.9499 7.33033C10.9836 7.33033 10.039 7.61688 9.23555 8.15373C8.43209 8.69059 7.80587 9.45364 7.43607 10.3464C7.06628 11.2392 6.96953 12.2215 7.15805 13.1693C7.34656 14.117 7.81189 14.9876 8.49518 15.6709C9.17847 16.3542 10.049 16.8195 10.9968 17.008C11.9445 17.1965 12.9269 17.0998 13.8197 16.73C14.7124 16.3602 15.4755 15.734 16.0123 14.9305C16.5492 14.127 16.8357 13.1824 16.8357 12.2161C16.8357 10.9203 16.321 9.6776 15.4047 8.76134C14.4885 7.84508 13.2457 7.33033 11.9499 7.33033ZM11.9499 14.659C11.4668 14.659 10.9945 14.5157 10.5927 14.2473C10.191 13.9789 9.87791 13.5973 9.69301 13.151C9.50811 12.7046 9.45974 12.2134 9.554 11.7395C9.64826 11.2657 9.88092 10.8304 10.2226 10.4887C10.5642 10.1471 10.9995 9.91442 11.4734 9.82016C11.9472 9.7259 12.4384 9.77428 12.8848 9.95918C13.3312 10.1441 13.7127 10.4572 13.9811 10.8589C14.2496 11.2606 14.3928 11.733 14.3928 12.2161C14.3928 12.864 14.1355 13.4854 13.6773 13.9435C13.2192 14.4016 12.5978 14.659 11.9499 14.659Z" fill="white"/>
</svg>
