<svg xmlns="http://www.w3.org/2000/svg" xmlns:xlink="http://www.w3.org/1999/xlink" width="60" height="60" viewBox="0 0 60 60"><defs><style>.a{fill:none;}.b{clip-path:url(#a);}.c{fill:#fbdd4d;}.d{fill:#f5fafc;}.e{fill:#e1f1fa;}.f{fill:#1584e8;}.g{fill:#30e5e5;}</style><clipPath id="a"><rect class="a" width="46" height="46"/></clipPath></defs><g transform="translate(-125 -721)"><rect class="a" width="60" height="60" transform="translate(125 721)"/><g transform="translate(132 729)"><g class="b" transform="translate(0 0)"><path class="c" d="M167.15,196.515l.772-1.708a1.611,1.611,0,0,0-.046-1.428,11.2,11.2,0,1,1,4.556,4.555,1.611,1.611,0,0,0-1.428-.046l-1.708.772a1.621,1.621,0,0,1-2.145-2.145Z" transform="translate(-144.144 -153.065)"/><path class="d" d="M212.386,213.608v-4.319a4.9,4.9,0,1,0-9.806,0v4.319a1.634,1.634,0,0,0,0,3.269h2.451a2.451,2.451,0,0,0,4.9,0h2.451a1.634,1.634,0,1,0,0-3.269Z" transform="translate(-173.884 -176.856)"/><path class="e" d="M205.848,215.242a1.634,1.634,0,0,1,1.634-1.634v-4.319a4.9,4.9,0,0,1,2.451-4.245,4.9,4.9,0,0,0-7.354,4.245v4.319a1.634,1.634,0,0,0,0,3.269h2.451a2.451,2.451,0,0,0,4.9,0h-2.451a1.634,1.634,0,0,1-1.634-1.634" transform="translate(-173.883 -176.856)"/><path class="f" d="M25.435,97.6l-.9-1.993a1.88,1.88,0,0,1,.054-1.666,13.069,13.069,0,1,0-5.315,5.315,1.88,1.88,0,0,1,1.666-.054l1.993.9a1.891,1.891,0,0,0,2.5-2.5Z" transform="translate(-0.207 -64.739)"/><path class="d" d="M54.013,127.981c-2.9-1.29-5.252,1.336-5.252,1.336s-2.35-2.626-5.252-1.336-2.9,5.575-.322,8.431a17.911,17.911,0,0,0,4.822,3.736,1.614,1.614,0,0,0,1.505,0,17.907,17.907,0,0,0,4.822-3.736c2.58-2.856,2.58-7.141-.322-8.431" transform="translate(-35.894 -110.512)"/><path class="e" d="M47.878,133.979a12.678,12.678,0,0,1,.882-4.662s-2.35-2.626-5.252-1.336-2.9,5.575-.323,8.431a17.909,17.909,0,0,0,4.822,3.736,1.614,1.614,0,0,0,1.474.015,12.652,12.652,0,0,1-1.6-6.183" transform="translate(-35.893 -110.512)"/><path class="g" d="M122.623,26.209l1.029-2.278a2.148,2.148,0,0,0-.062-1.9,14.936,14.936,0,1,1,6.074,6.074,2.148,2.148,0,0,0-1.9-.062l-2.278,1.029a2.161,2.161,0,0,1-2.86-2.86Z" transform="translate(-105.484 -0.207)"/><path class="d" d="M219.367,47.613a3.152,3.152,0,0,0-3.152-3.152h-3.109l1.723-2.487a1.541,1.541,0,0,0-.1-1.906,1.511,1.511,0,0,0-2.134-.11L207,45.012a3.152,3.152,0,0,0-1.04,2.34v5.875a3.152,3.152,0,0,0,3.152,3.152h7.1a3.152,3.152,0,0,0,3.152-3.152V47.613Z" transform="translate(-178.216 -34.406)"/><path class="e" d="M213.107,44.462l1.723-2.487a1.541,1.541,0,0,0-.1-1.906,1.51,1.51,0,0,0-2.134-.11L207,45.013a3.152,3.152,0,0,0-1.04,2.34v5.875a3.152,3.152,0,0,0,3.152,3.152h3.995a3.152,3.152,0,0,1-3.152-3.152V47.614A3.152,3.152,0,0,1,213.107,44.462Z" transform="translate(-178.217 -34.407)"/><path class="d" d="M169.117,83.145h2.568a1.868,1.868,0,0,0,1.868-1.868V72.4a1.868,1.868,0,0,0-1.868-1.868h-2.568a1.868,1.868,0,0,0-1.868,1.868v8.872a1.868,1.868,0,0,0,1.868,1.868" transform="translate(-144.759 -61.172)"/></g></g></g></svg>