<svg width="28" height="30" viewBox="0 0 28 30" fill="none" xmlns="http://www.w3.org/2000/svg">
<g filter="url(#filter0_d_229_98)">
<path fill-rule="evenodd" clip-rule="evenodd" d="M4 12C4 6.477 8.477 2 14 2C19.523 2 24 6.477 24 12C24 17.523 19.523 22 14 22C8.477 22 4 17.523 4 12ZM14 4C11.8783 4 9.84344 4.84285 8.34315 6.34315C6.84285 7.84344 6 9.87827 6 12C6 14.1217 6.84285 16.1566 8.34315 17.6569C9.84344 19.1571 11.8783 20 14 20C16.1217 20 18.1566 19.1571 19.6569 17.6569C21.1571 16.1566 22 14.1217 22 12C22 9.87827 21.1571 7.84344 19.6569 6.34315C18.1566 4.84285 16.1217 4 14 4Z" fill="white" fill-opacity="0.6"/>
<rect x="8" y="11" width="12" height="2" rx="1" fill="#A3A2A4"/>
</g>
<defs>
<filter id="filter0_d_229_98" x="-2" y="0" width="32" height="32" filterUnits="userSpaceOnUse" color-interpolation-filters="sRGB">
<feFlood flood-opacity="0" result="BackgroundImageFix"/>
<feColorMatrix in="SourceAlpha" type="matrix" values="0 0 0 0 0 0 0 0 0 0 0 0 0 0 0 0 0 0 127 0" result="hardAlpha"/>
<feOffset dy="4"/>
<feGaussianBlur stdDeviation="2"/>
<feComposite in2="hardAlpha" operator="out"/>
<feColorMatrix type="matrix" values="0 0 0 0 0 0 0 0 0 0 0 0 0 0 0 0 0 0 0.25 0"/>
<feBlend mode="normal" in2="BackgroundImageFix" result="effect1_dropShadow_229_98"/>
<feBlend mode="normal" in="SourceGraphic" in2="effect1_dropShadow_229_98" result="shape"/>
</filter>
</defs>
</svg>
