<svg xmlns="http://www.w3.org/2000/svg" width="60" height="60" viewBox="0 0 60 60"><defs><style>.a{fill:none;}.b{fill:#1684e8;}.c{fill:#00f9ff;}</style></defs><g transform="translate(-125 -721)"><rect class="a" width="60" height="60" transform="translate(125 721)"/><g transform="translate(129.41 725.648)"><path class="b" d="M46.067,10.239V36.147a1.062,1.062,0,0,1-.572.95,1.079,1.079,0,0,1-.507.13,1.131,1.131,0,0,1-.6-.184l-9.111-6.1V16.716a5.4,5.4,0,0,0-5.4-5.4H18v-1.08A3.248,3.248,0,0,1,21.239,7h21.59a3.248,3.248,0,0,1,3.239,3.239Z" transform="translate(1.113 0)"/><path class="c" d="M30.988,13H7.239A3.248,3.248,0,0,0,4,16.239V42.147a1.08,1.08,0,0,0,.626.982,1.143,1.143,0,0,0,.453.1,1.065,1.065,0,0,0,.7-.259l6.952-5.959a1.1,1.1,0,0,1,.7-.259H30.988a3.248,3.248,0,0,0,3.239-3.239V16.239A3.248,3.248,0,0,0,30.988,13ZM19.113,28.113H12.636a1.08,1.08,0,0,1,0-2.159h6.477a1.08,1.08,0,0,1,0,2.159Zm6.477,0H22.352a1.08,1.08,0,0,1,0-2.159H25.59a1.08,1.08,0,1,1,0,2.159Zm0-5.4H12.636a1.08,1.08,0,0,1,0-2.159H25.59a1.08,1.08,0,1,1,0,2.159Z" transform="translate(0 0.477)"/></g></g></svg>