<svg width="29" height="29" viewBox="0 0 29 29" fill="none" xmlns="http://www.w3.org/2000/svg">
<path d="M22.9583 8.45833V4.83333C22.9583 4.51286 22.831 4.20552 22.6044 3.97891C22.3778 3.75231 22.0705 3.625 21.75 3.625H6.04167C5.40073 3.625 4.78604 3.87961 4.33283 4.33283C3.87961 4.78604 3.625 5.40073 3.625 6.04167C3.625 6.68261 3.87961 7.2973 4.33283 7.75051C4.78604 8.20372 5.40073 8.45833 6.04167 8.45833H24.1667C24.4871 8.45833 24.7945 8.58564 25.0211 8.81225C25.2477 9.03885 25.375 9.3462 25.375 9.66667V14.5M25.375 14.5H21.75C21.1091 14.5 20.4944 14.7546 20.0412 15.2078C19.5879 15.661 19.3333 16.2757 19.3333 16.9167C19.3333 17.5576 19.5879 18.1723 20.0412 18.6255C20.4944 19.0787 21.1091 19.3333 21.75 19.3333H25.375C25.6955 19.3333 26.0028 19.206 26.2294 18.9794C26.456 18.7528 26.5833 18.4455 26.5833 18.125V15.7083C26.5833 15.3879 26.456 15.0805 26.2294 14.8539C26.0028 14.6273 25.6955 14.5 25.375 14.5Z" stroke="white" stroke-width="2" stroke-linecap="round" stroke-linejoin="round"/>
<path d="M3.625 6.04175V22.9584C3.625 23.5994 3.87961 24.214 4.33283 24.6673C4.78604 25.1205 5.40073 25.3751 6.04167 25.3751H24.1667C24.4871 25.3751 24.7945 25.2478 25.0211 25.0212C25.2477 24.7946 25.375 24.4872 25.375 24.1667V19.3334" stroke="white" stroke-width="2" stroke-linecap="round" stroke-linejoin="round"/>
</svg>
