<svg width="27" height="26" viewBox="0 0 27 26" fill="none" xmlns="http://www.w3.org/2000/svg">
<path d="M2.07331 8.36803L1.03666 9.40469L0 8.36803L1.03666 7.33138L2.07331 8.36803ZM9.40469 25.9633C9.01581 25.9633 8.64285 25.8089 8.36788 25.5339C8.0929 25.2589 7.93841 24.8859 7.93841 24.4971C7.93841 24.1082 8.0929 23.7352 8.36788 23.4602C8.64285 23.1853 9.01581 23.0308 9.40469 23.0308V25.9633ZM8.36803 16.7361L1.03666 9.40469L3.10997 7.33138L10.4413 14.6628L8.36803 16.7361ZM1.03666 7.33138L8.36803 0L10.4413 2.07331L3.10997 9.40469L1.03666 7.33138ZM2.07331 6.90176H17.4692V9.83431H2.07331V6.90176ZM17.4692 25.9633H9.40469V23.0308H17.4692V25.9633ZM27 16.4325C27 18.9603 25.9959 21.3845 24.2085 23.1718C22.4211 24.9592 19.9969 25.9633 17.4692 25.9633V23.0308C18.3357 23.0308 19.1937 22.8601 19.9942 22.5285C20.7948 22.1969 21.5222 21.7109 22.1349 21.0982C22.7476 20.4855 23.2336 19.7581 23.5652 18.9576C23.8968 18.157 24.0674 17.299 24.0674 16.4325H27ZM17.4692 6.90176C19.9969 6.90176 22.4211 7.90589 24.2085 9.69326C25.9959 11.4806 27 13.9048 27 16.4325H24.0674C24.0674 15.5661 23.8968 14.708 23.5652 13.9075C23.2336 13.107 22.7476 12.3796 22.1349 11.7669C21.5222 11.1542 20.7948 10.6682 19.9942 10.3366C19.1937 10.005 18.3357 9.83431 17.4692 9.83431V6.90176Z" fill="#00F6F6"/>
</svg>
