<svg xmlns="http://www.w3.org/2000/svg" width="40" height="40" viewBox="0 0 40 40"><defs><style>.a{fill:none;}.b{fill:#c1c6ff;}</style></defs><g transform="translate(-125 -721)"><rect class="a" width="40" height="40" transform="translate(125 721)"/><g transform="translate(59.655 581.42)"><path class="b" d="M92.178,155.506c-.535-5.017-5.375-8.946-11.263-8.946-6.264,0-11.315,4.419-11.315,9.868a9.515,9.515,0,0,0,4.6,7.972c.313.2-1.036,3.035-.7,3.206s1.014-.4,1.737-.945,1.406-1.059,1.708-.957a12.9,12.9,0,0,0,3.986.621,13.389,13.389,0,0,0,2.044-.159c1.315,3.018,4.749,5.176,8.775,5.176a10.859,10.859,0,0,0,3.138-.461c.159-.046.774.4,1.4.86s1.258.917,1.412.854c.49-.2-.905-2.488-.461-2.756a7.6,7.6,0,0,0,3.861-6.406C101.084,159.161,97.137,155.7,92.178,155.506Zm-3.883,5.951a1,1,0,1,1,.985-1A1,1,0,0,1,88.294,161.456ZM82.4,163.4a7.282,7.282,0,0,0,.051.866,11.2,11.2,0,0,1-1.526.1,10.75,10.75,0,0,1-3.679-.632c-.114-.04-.512-.165-.729,0a9.444,9.444,0,0,0-1.139,1.139,5.068,5.068,0,0,0,.319-1.367c.04-.364-.518-.626-.632-.7a7.83,7.83,0,0,1-3.491-6.349c0-4.373,4.185-7.915,9.35-7.915,4.817,0,8.786,3.086,9.287,7.055C85.777,156.223,82.4,159.48,82.4,163.4Zm11.8-1.947a1,1,0,1,1,.985-1,.985.985,0,0,1-.985,1Z" transform="translate(0 0)"/><path class="b" d="M244.1,286.077a1.492,1.492,0,1,0,1.475,1.492A1.492,1.492,0,0,0,244.1,286.077Zm-7.875,0a1.48,1.48,0,1,0,1.051.438A1.492,1.492,0,0,0,236.222,286.077Z" transform="translate(-159.242 -134.552)"/></g></g></svg>