<svg width="41" height="41" viewBox="0 0 41 41" fill="none" xmlns="http://www.w3.org/2000/svg">
<path fill-rule="evenodd" clip-rule="evenodd" d="M38.5744 18.3866C37.7032 9.86362 31.0094 3.06443 22.5354 2.03127L20.5041 0L18.5256 1.97854C9.77938 2.8102 2.81953 9.76998 1.98778 18.5162L0.00927734 20.4947L2.04044 22.5258C3.07629 31.0233 9.91007 37.7307 18.466 38.5722L20.5041 40.6104L22.5969 38.5177C30.879 37.4796 37.4478 30.9317 38.5177 22.6594L40.6825 20.4947L38.5744 18.3866Z" fill="#D9C18F"/>
<circle cx="20.3235" cy="20.3142" r="16.2703" fill="#413C56"/>
<path d="M18.6511 24.9269H18.9324C19.823 24.9269 20.2683 24.4581 20.2683 23.5206V20.3566H14.2917V23.5909C14.2917 24.4816 14.7605 24.9269 15.698 24.9269H15.9792V25.63H10.2136V24.9269H10.4949C11.3855 24.9269 11.8308 24.4816 11.8308 23.5909V16.4191C11.8308 15.5753 11.3855 15.1534 10.4949 15.1534H10.2136V14.4503H15.9792V15.1534H15.698C14.7136 15.1066 14.2449 15.5284 14.2917 16.4191V19.3019H20.2683V16.4894C20.3152 15.5519 19.823 15.1066 18.7917 15.1534H18.6511V14.4503H24.4167V15.1534H24.0652C23.1277 15.1066 22.6824 15.5284 22.7292 16.4191V23.5909C22.6824 24.5284 23.1511 24.9738 24.1355 24.9269H24.4167V25.63H18.6511V24.9269ZM25.9102 15.1534V14.4503H31.6055V15.1534H31.3242C30.3867 15.1534 29.918 15.5988 29.918 16.4894V23.5909C29.8711 24.5284 30.3399 24.9738 31.3242 24.9269H31.6055V25.63H25.9102V24.9269H26.1211C27.0586 24.9269 27.5039 24.505 27.4571 23.6613V16.4894C27.5039 15.5519 27.0586 15.1066 26.1211 15.1534H25.9102Z" fill="#FBF2BE"/>
</svg>
