<svg width="70" height="64" viewBox="0 0 70 64" fill="none" xmlns="http://www.w3.org/2000/svg">
<path d="M17.2917 16.9999C15.495 16.9998 13.7314 17.4837 12.1864 18.4007C10.6414 19.3178 9.37199 20.6343 8.51167 22.2116L2.44167 33.3399C0.839455 36.2776 -6.86646e-05 39.5704 0 42.9166V53.6666C0 56.3187 1.05357 58.8623 2.92893 60.7377C4.8043 62.613 7.34784 63.6666 10 63.6666H60C62.6522 63.6666 65.1957 62.613 67.0711 60.7377C68.9464 58.8623 70 56.3187 70 53.6666V42.9166C70.0001 39.5704 69.1605 36.2776 67.5583 33.3399L61.4883 22.2116C60.628 20.6343 59.3586 19.3178 57.8136 18.4007C56.2686 17.4837 54.505 16.9998 52.7083 16.9999H17.2917ZM44.5717 43.6666L63.3333 43.6649V53.6666C63.3336 54.5075 63.016 55.3175 62.4442 55.9342C61.8724 56.5508 61.0886 56.9285 60.25 56.9916L60 56.9999H10C9.11594 56.9999 8.2681 56.6487 7.64298 56.0236C7.01786 55.3985 6.66666 54.5506 6.66666 53.6666V43.6649L25.4283 43.6666L28.6567 46.4499C30.364 47.9207 32.5294 48.7524 34.7823 48.8026C37.0353 48.8528 39.2356 48.1183 41.0067 46.7249L41.3433 46.4482L44.5717 43.6666ZM17.2917 23.6666H52.7083C53.3072 23.6665 53.895 23.8277 54.41 24.1333C54.925 24.4389 55.3482 24.8776 55.635 25.4033L61.705 36.5333C61.7892 36.6872 61.8703 36.8428 61.9483 36.9999H44.5717C43.1105 37.0001 41.6899 37.4803 40.5283 38.3666L40.22 38.6166L36.99 41.3982C36.473 41.8436 35.8216 42.1027 35.1399 42.1341C34.4583 42.1655 33.7858 41.9675 33.23 41.5716L33.01 41.3982L29.78 38.6149C28.6734 37.6619 27.2845 37.0986 25.8267 37.0116L25.4283 36.9999L8.05167 36.9982L8.295 36.5316L14.365 25.4033C14.6518 24.8776 15.075 24.4389 15.59 24.1333C16.105 23.8277 16.6928 23.6665 17.2917 23.6666ZM35 0.333252C34.159 0.332986 33.3491 0.650596 32.7324 1.22241C32.1158 1.79423 31.7381 2.57799 31.675 3.41659L31.6667 3.66659V10.9266C31.6628 11.7916 31.9953 12.6242 32.594 13.2485C33.1926 13.8728 34.0105 14.24 34.8749 14.2725C35.7393 14.3049 36.5824 14.0001 37.2262 13.4224C37.87 12.8447 38.264 12.0394 38.325 11.1766L38.3333 10.9266V3.66659C38.3333 2.78253 37.9821 1.93468 37.357 1.30956C36.7319 0.684442 35.8841 0.333252 35 0.333252ZM54.3833 2.90492L54.1817 3.11159L49.1817 8.70492C48.6052 9.34488 48.2989 10.1831 48.3268 11.044C48.3547 11.9048 48.7148 12.7215 49.3316 13.3227C49.9483 13.9239 50.7738 14.2631 51.6351 14.2691C52.4964 14.2751 53.3266 13.9475 53.9517 13.3549L54.1517 13.1483L59.1517 7.55492C59.7281 6.91496 60.0345 6.0767 60.0065 5.21585C59.9786 4.35499 59.6185 3.53837 59.0018 2.93714C58.385 2.33591 57.5595 1.99675 56.6982 1.99074C55.8369 1.98474 55.0067 2.31235 54.3817 2.90492H54.3833ZM11.1117 2.84825C10.4898 3.40414 10.0989 4.173 10.0162 5.00303C9.93348 5.83305 10.165 6.66392 10.665 7.33159L10.8483 7.55492L15.8483 13.1483C16.4206 13.7898 17.2186 14.1854 18.0757 14.2525C18.9327 14.3196 19.7826 14.053 20.4477 13.5084C21.1129 12.9637 21.5418 12.1831 21.6451 11.3296C21.7483 10.4761 21.5178 9.61579 21.0017 8.92825L20.8183 8.70492L15.8183 3.11159C15.2291 2.45253 14.4022 2.05453 13.5195 2.00514C12.6369 1.95576 11.7707 2.25903 11.1117 2.84825Z" fill="#A8A8A8"/>
</svg>
